<?xml version="1.0" encoding="UTF-8"?>
<!DOCTYPE svg PUBLIC "-//W3C//DTD SVG 1.1//EN" "http://www.w3.org/Graphics/SVG/1.1/DTD/svg11.dtd">
<!-- Creator: CorelDRAW -->
<svg xmlns="http://www.w3.org/2000/svg" xml:space="preserve" width="245px" height="60px" version="1.1" style="shape-rendering:geometricPrecision; text-rendering:geometricPrecision; image-rendering:optimizeQuality; fill-rule:evenodd; clip-rule:evenodd"
viewBox="0 0 33.97 8.3"
 xmlns:xlink="http://www.w3.org/1999/xlink"
 xmlns:xodm="http://www.corel.com/coreldraw/odm/2003">
 <defs>
  <style type="text/css">
   <![CDATA[
    .fil0 {fill:white;fill-rule:nonzero}
   ]]>
  </style>
 </defs>
 <g id="Camada_x0020_1">
  <metadata id="CorelCorpID_0Corel-Layer"/>
  <g id="_2776823753984">
   <g>
    <path class="fil0" d="M3.65 8.08l0.1 0.01 -0.03 0.19 -0.09 -0.01c-0.93,-0.12 -1.77,-0.54 -2.4,-1.17 -0.63,-0.63 -1.07,-1.46 -1.19,-2.39l-0.02 -0.09 0.19 -0.03 0.02 0.09c0.12,0.89 0.53,1.68 1.13,2.28 0.61,0.6 1.4,1.01 2.29,1.12z"/>
    <path class="fil0" d="M0.19 4.15l0 0.1 -0.19 0 0 -0.1c0,-1.15 0.46,-2.18 1.22,-2.93 0.75,-0.76 1.78,-1.22 2.93,-1.22 1.15,0 2.18,0.46 2.94,1.22 0.75,0.75 1.21,1.78 1.21,2.93 0,1.15 -0.46,2.18 -1.21,2.94 -0.76,0.75 -1.79,1.21 -2.94,1.21l-0.1 0 0 -0.19 0.1 0c1.09,0 2.08,-0.44 2.8,-1.16 0.72,-0.72 1.16,-1.71 1.16,-2.8 0,-1.09 -0.44,-2.08 -1.16,-2.8 -0.72,-0.71 -1.71,-1.16 -2.8,-1.16 -1.09,0 -2.08,0.45 -2.8,1.16 -0.71,0.72 -1.16,1.71 -1.16,2.8z"/>
    <path class="fil0" d="M2.06 3.62l0.02 -0.1 0.19 0.05 -0.03 0.09c-0.02,0.08 -0.03,0.16 -0.04,0.24 -0.01,0.08 -0.02,0.17 -0.02,0.25 0,0.51 0.2,0.98 0.52,1.32 0.03,0.05 0.07,0.08 0.11,0.12l0.66 -2.5 -1.21 0 0.1 -0.15c0.17,-0.25 0.39,-0.46 0.64,-0.62 0.25,-0.16 0.53,-0.27 0.83,-0.31l0.1 -0.02 0.02 0.19 -0.09 0.02c-0.28,0.04 -0.53,0.14 -0.76,0.28 -0.18,0.11 -0.34,0.25 -0.47,0.42l1.09 0.01 -0.75 2.82c0.22,0.16 0.48,0.28 0.75,0.34l0.84 -3.17 2.29 0c-0.24,-0.51 -0.62,-0.94 -1.09,-1.24 -0.46,-0.3 -1.01,-0.48 -1.61,-0.48 -0.82,0 -1.56,0.33 -2.1,0.87 -0.54,0.54 -0.87,1.28 -0.87,2.1 0,0.54 0.14,1.04 0.39,1.47 0.24,0.41 0.57,0.76 0.97,1.02l0.22 -0.84c-0.07,-0.06 -0.14,-0.13 -0.21,-0.2 -0.34,-0.38 -0.56,-0.89 -0.56,-1.45 0,-0.09 0.01,-0.18 0.02,-0.27 0.01,-0.09 0.03,-0.18 0.05,-0.26zm1.85 2.49l0.06 0c0.06,0.01 0.13,0.01 0.19,0.01 0.07,0 0.13,0 0.2,-0.01 0.42,-0.04 0.8,-0.22 1.1,-0.49 0.28,-0.24 0.48,-0.56 0.59,-0.92l-1.31 0 0.32 -1.16 2.21 0 0 0.1c0,0.07 0.01,0.14 0.02,0.21 0.01,0.1 0.02,0.2 0.02,0.3 0,0.87 -0.35,1.66 -0.92,2.24 -0.58,0.57 -1.37,0.92 -2.24,0.92 -0.1,0 -0.21,0 -0.32,-0.02 -0.1,-0.01 -0.21,-0.02 -0.31,-0.04l-0.1 -0.02 0.25 -0.97c-0.27,-0.06 -0.52,-0.18 -0.75,-0.33l-0.26 1.01 -0.11 -0.07c-0.48,-0.28 -0.87,-0.68 -1.14,-1.15 -0.27,-0.47 -0.42,-1 -0.42,-1.57 0,-0.87 0.35,-1.66 0.93,-2.23 0.57,-0.58 1.36,-0.93 2.23,-0.93 0.63,0 1.22,0.19 1.72,0.51 0.51,0.33 0.92,0.8 1.17,1.36l0.1 0.24 -2.44 0 -0.79 3.01zm0.04 0.19l-0.09 -0.01 -0.2 0.79c0.06,0.01 0.13,0.02 0.19,0.02 0.1,0.01 0.2,0.02 0.3,0.02 0.82,0 1.56,-0.33 2.1,-0.87 0.54,-0.54 0.87,-1.28 0.87,-2.1 0,-0.1 -0.01,-0.19 -0.02,-0.28 -0.01,-0.04 -0.01,-0.09 -0.02,-0.13l-1.87 0 -0.22 0.76 1.3 0 -0.03 0.12c-0.1,0.45 -0.34,0.85 -0.67,1.15 -0.33,0.29 -0.75,0.48 -1.21,0.53 -0.07,0.01 -0.15,0.01 -0.22,0.01 -0.07,0 -0.14,0 -0.21,-0.01z"/>
   </g>
   <path class="fil0" d="M9.5 3.18c0.06,0.03 0.17,0.04 0.28,0.04 0.12,0 0.24,-0.01 0.32,-0.04 0.11,-0.03 0.2,-0.15 0.1,-0.24 -0.09,-0.07 -0.22,-0.14 -0.39,-0.23 -0.09,-0.06 -0.2,-0.1 -0.17,-0.16 0.05,-0.12 0.46,-0.2 0.62,-0.25 0.04,-0.05 -0.05,-0.13 -0.12,-0.13 -0.23,0.04 -0.72,0.18 -0.68,0.42 0.01,0.13 0.14,0.18 0.26,0.24 0.09,0.05 0.26,0.14 0.37,0.2 -0.12,0.02 -0.3,0.05 -0.44,0.05 -0.06,0 -0.11,-0.01 -0.15,-0.02 -0.1,-0.02 -0.06,0.09 0,0.12zm9.22 -0.19c0.02,0.06 0.13,0.14 0.17,0.11 0.18,-0.15 0.3,-0.39 0.53,-0.54 0.04,0.18 0.07,0.28 0.11,0.38 0.03,0.05 0.11,0.1 0.15,0.08 0.12,-0.08 0.23,-0.17 0.44,-0.34 0.01,0.04 0.03,0.09 0.06,0.14 0.04,0.05 0.09,0.1 0.16,0.15 0.09,0.06 0.2,0.09 0.3,0.09 0.25,0 0.54,-0.22 0.61,-0.34 0.06,-0.1 0,-0.14 -0.02,-0.11 -0.06,0.1 -0.55,0.32 -0.69,0.32 -0.06,0 -0.12,-0.02 -0.17,-0.05 -0.09,-0.08 -0.11,-0.24 -0.16,-0.33 -0.03,-0.05 -0.11,-0.09 -0.14,-0.07l-0.44 0.35c-0.04,-0.15 -0.04,-0.25 -0.09,-0.36 -0.04,-0.05 -0.12,-0.1 -0.15,-0.08 -0.19,0.09 -0.35,0.27 -0.5,0.44 -0.01,-0.14 0.01,-0.22 0.01,-0.34 0.01,-0.06 -0.14,-0.16 -0.15,-0.08 -0.02,0.11 -0.03,0.24 -0.03,0.38 0,0.07 0,0.13 0,0.2zm-6.73 -0.36c0.1,-0.04 0.14,-0.1 0.01,-0.09 -0.04,0 -0.22,0.02 -0.43,0.02 -0.1,0 -0.22,-0.01 -0.33,-0.02 -0.07,-0.08 -0.17,-0.14 -0.29,-0.16 -0.09,0 -0.12,0.05 -0.14,0.11 -0.01,0 -0.01,0 -0.02,0 -0.1,0.04 -0.22,0.25 -0.19,0.44 0.02,0.13 0.13,0.27 0.3,0.28 0.21,0.01 0.39,-0.1 0.43,-0.33 0.02,-0.06 0.01,-0.13 -0.01,-0.19 0.28,0.01 0.57,-0.03 0.67,-0.06zm-1.11 -0.04l0.01 -0.01c0.06,0.04 0.15,0.07 0.25,0.09 0.07,0.16 -0.03,0.42 -0.23,0.42 -0.08,0.01 -0.13,-0.04 -0.15,-0.17 -0.03,-0.13 0.06,-0.28 0.12,-0.33zm1.21 0.17c0.04,-0.17 0.21,-0.33 0.37,-0.3 0,0.05 -0.02,0.09 -0.03,0.1 -0.03,0.06 0.01,0.08 0.06,0.06 0.04,-0.01 0.13,-0.04 0.13,-0.12 0,-0.04 -0.04,-0.1 -0.1,-0.13 -0.06,-0.03 -0.12,-0.04 -0.17,-0.04 -0.1,0 -0.18,0.04 -0.24,0.09 -0.1,0.09 -0.16,0.21 -0.16,0.33 -0.02,0.3 0.24,0.47 0.5,0.47 0.55,-0.03 0.84,-0.39 0.92,-0.52 0.03,-0.06 0,-0.14 -0.03,-0.12 -0.27,0.24 -0.59,0.48 -0.97,0.51 -0.2,0 -0.32,-0.13 -0.28,-0.33zm1.23 0.31c0.08,0.09 0.2,0.12 0.31,0.11 0.31,-0.01 0.72,-0.36 0.81,-0.52 0.05,-0.1 0.01,-0.13 -0.01,-0.11 -0.14,0.14 -0.61,0.5 -0.89,0.5 -0.05,0 -0.09,-0.02 -0.13,-0.05 -0.07,-0.05 0.02,-0.56 0.06,-0.6 0,-0.02 -0.02,-0.06 -0.07,-0.07 -0.06,-0.02 -0.1,-0.01 -0.11,0.01 -0.05,0.08 -0.07,0.22 -0.07,0.36 0,0.14 0.03,0.3 0.1,0.37zm0.09 -1.04c0.04,0.02 0.09,0.02 0.11,0 0.01,-0.02 0.05,-0.12 0.06,-0.14 0.01,-0.03 0.01,-0.06 0.01,-0.08 0.01,-0.02 -0.03,-0.06 -0.09,-0.07 -0.04,-0.02 -0.09,-0.01 -0.09,0.02l-0.01 0.06c-0.01,0.03 -0.04,0.12 -0.05,0.13 -0.02,0.02 0.01,0.06 0.06,0.08zm0.95 1.06c0.05,0.03 0.1,0.04 0.16,0.04 0.24,0 0.53,-0.22 0.66,-0.34 0.06,0.17 0.17,0.25 0.32,0.29 0.19,0.04 0.5,-0.1 0.61,-0.21 0.24,-0.25 0.18,-0.36 0.1,-0.29 -0.16,0.18 -0.55,0.41 -0.78,0.37 -0.08,-0.03 -0.1,-0.12 -0.09,-0.19 0,-0.09 0.05,-0.17 0.07,-0.24 0.03,-0.05 -0.12,-0.15 -0.15,-0.1l-0.08 0.1 0 0c-0.11,-0.04 -0.24,-0.07 -0.37,-0.07 -0.15,0 -0.3,0.04 -0.43,0.12 -0.11,0.08 -0.16,0.17 -0.16,0.27 0,0.1 0.05,0.18 0.14,0.25zm0.08 -0.1c-0.07,0 -0.1,-0.05 -0.08,-0.11 0.05,-0.2 0.34,-0.29 0.57,-0.29 0.06,0 0.13,0.01 0.17,0.02 -0.15,0.17 -0.45,0.35 -0.66,0.38zm2.14 0.46c0.29,0 0.65,-0.49 0.73,-0.71 0.01,-0.05 0.01,-0.17 -0.04,-0.1 -0.07,0.08 -0.61,0.81 -0.84,0.67 -0.1,-0.07 -0.14,-0.39 -0.14,-0.79 0,-0.77 0.13,-1.85 0.16,-1.93 0,-0.03 -0.04,-0.06 -0.08,-0.09 -0.05,-0.01 -0.07,-0.01 -0.08,0.02 -0.06,0.19 -0.18,1.15 -0.18,1.9 0,0.37 0.03,0.69 0.11,0.82 0.09,0.13 0.22,0.21 0.36,0.21zm5.19 -0.23c0.31,-0.01 0.59,-0.23 0.72,-0.49 0.06,-0.13 0.08,-0.23 -0.02,-0.12 -0.19,0.19 -0.5,0.51 -0.93,0.51 -0.15,0 -0.31,-0.15 -0.32,-0.23 0.15,0 0.35,-0.11 0.4,-0.25 0.05,-0.13 -0.08,-0.27 -0.22,-0.27 -0.22,0.01 -0.35,0.21 -0.35,0.41 0,0.05 0.01,0.09 0.02,0.13 0.09,0.28 0.43,0.33 0.7,0.31zm-0.29 -0.7c0.05,0.05 -0.08,0.18 -0.27,0.26 0,-0.11 0.17,-0.35 0.27,-0.26zm2.22 1.62c0.05,0.01 0.07,0 0.05,-0.04 -0.01,-0.03 -0.04,-0.06 -0.07,-0.07l0 0 -0.01 -0.01c-0.02,-0.02 -0.03,-0.08 -0.06,-0.17 -0.02,-0.1 -0.03,-0.24 -0.04,-0.39 -0.01,-0.13 -0.01,-0.27 -0.01,-0.41 0,-0.21 0,-0.42 0.01,-0.63 0.01,-0.17 0.02,-0.34 0.03,-0.57 0.01,-0.08 0.04,-0.2 0.05,-0.29 0.03,-0.21 0.08,-0.74 0.08,-0.94 -0.01,-0.07 -0.16,-0.15 -0.17,-0.08 -0.01,0.01 -0.09,0.65 -0.12,1.03l-0.01 0.16c-0.06,0.24 -0.11,0.47 -0.21,0.71l-0.03 -0.01c-0.12,-0.03 -0.21,-0.04 -0.3,-0.04 -0.2,0 -0.33,0.06 -0.42,0.15 -0.06,0.06 -0.09,0.14 -0.09,0.23 0,0.09 0.04,0.19 0.15,0.28 0.1,0.07 0.19,0.08 0.27,0.08 0.32,-0.02 0.5,-0.43 0.6,-0.68l0 0.16c0,0.13 -0.01,0.25 -0.01,0.37 0,0.14 0.01,0.28 0.02,0.41 0,0.15 0.02,0.29 0.04,0.4 0.02,0.09 0.06,0.2 0.12,0.27 0.03,0.04 0.08,0.07 0.13,0.08zm-0.99 -1.13c-0.05,0 -0.08,-0.01 -0.12,-0.04 -0.03,-0.02 -0.05,-0.07 -0.05,-0.13 0,-0.06 0.02,-0.12 0.08,-0.19 0.07,-0.07 0.18,-0.12 0.37,-0.12 0.05,0 0.12,0.01 0.18,0.02l0 0.01c-0.1,0.18 -0.24,0.43 -0.46,0.45zm1.34 0.06c0.09,0.09 0.21,0.12 0.32,0.11 0.31,-0.01 0.72,-0.36 0.8,-0.52 0.06,-0.1 0.01,-0.13 0,-0.11 -0.14,0.14 -0.61,0.5 -0.89,0.5 -0.05,0 -0.1,-0.02 -0.13,-0.05 -0.07,-0.05 0.02,-0.56 0.06,-0.6 0,-0.02 -0.03,-0.06 -0.08,-0.07 -0.05,-0.02 -0.1,-0.01 -0.1,0.01 -0.05,0.08 -0.08,0.22 -0.08,0.36 0,0.14 0.04,0.3 0.1,0.37zm0.1 -1.04c0.04,0.02 0.09,0.02 0.1,0 0.02,-0.02 0.05,-0.12 0.06,-0.14 0.02,-0.03 0.02,-0.06 0.02,-0.08 0.01,-0.02 -0.03,-0.06 -0.09,-0.07 -0.04,-0.02 -0.09,-0.01 -0.09,0.02l-0.01 0.06c-0.01,0.03 -0.04,0.12 -0.05,0.13 -0.02,0.02 0,0.06 0.06,0.08zm0.94 1.06c0.05,0.03 0.11,0.04 0.17,0.04 0.23,0 0.53,-0.22 0.66,-0.34 0.05,0.17 0.17,0.25 0.31,0.29 0.19,0.04 0.5,-0.1 0.61,-0.21 0.25,-0.25 0.18,-0.36 0.11,-0.29 -0.16,0.18 -0.55,0.41 -0.78,0.37 -0.08,-0.03 -0.1,-0.12 -0.1,-0.19 0.01,-0.09 0.05,-0.17 0.07,-0.24 0.04,-0.05 -0.12,-0.15 -0.14,-0.1l-0.08 0.1 0 0c-0.12,-0.04 -0.24,-0.07 -0.37,-0.07 -0.16,0 -0.31,0.04 -0.43,0.12 -0.11,0.08 -0.16,0.17 -0.16,0.27 0,0.1 0.04,0.18 0.13,0.25zm0.08 -0.1c-0.06,0 -0.09,-0.05 -0.08,-0.11 0.05,-0.2 0.35,-0.29 0.57,-0.29 0.07,0 0.13,0.01 0.18,0.02 -0.16,0.17 -0.45,0.35 -0.67,0.38z"/>
   <polygon class="fil0" points="10.39,4.2 10.39,7.09 10.21,7.09 10.21,4.2 9.44,4.2 9.44,4.03 11.16,4.03 11.16,4.2 "/>
   <path id="_1" class="fil0" d="M13.29 7.09l-0.18 0 0 -0.38c-0.03,0.04 -0.07,0.09 -0.1,0.13 -0.21,0.2 -0.46,0.31 -0.75,0.31 -0.29,0 -0.54,-0.11 -0.74,-0.31 -0.21,-0.21 -0.31,-0.46 -0.31,-0.74 0,-0.3 0.1,-0.54 0.31,-0.75 0.2,-0.2 0.45,-0.31 0.74,-0.31 0.29,0 0.54,0.11 0.75,0.31 0.03,0.04 0.07,0.08 0.1,0.13l0 -0.27 0.18 0 0 1.88zm-0.18 -0.83l0 -0.33c-0.03,-0.17 -0.11,-0.32 -0.24,-0.45 -0.17,-0.17 -0.37,-0.25 -0.61,-0.25 -0.24,0 -0.44,0.08 -0.61,0.25 -0.17,0.17 -0.26,0.38 -0.26,0.62 0,0.24 0.09,0.44 0.26,0.61 0.17,0.17 0.37,0.25 0.61,0.25 0.24,0 0.44,-0.08 0.61,-0.25 0.13,-0.13 0.21,-0.28 0.24,-0.45z"/>
   <path id="_2" class="fil0" d="M13.91 5.21l0 1.88 -0.17 0 0 -1.88 0.17 0zm-0.09 -0.66c0.05,0 0.09,0.02 0.12,0.05 0.04,0.03 0.05,0.07 0.05,0.12 0,0.05 -0.01,0.09 -0.05,0.12 -0.03,0.03 -0.07,0.05 -0.12,0.05 -0.05,0 -0.09,-0.02 -0.12,-0.05 -0.03,-0.03 -0.05,-0.07 -0.05,-0.12 0,-0.05 0.02,-0.09 0.05,-0.12 0.03,-0.03 0.07,-0.05 0.12,-0.05z"/>
   <path id="_3" class="fil0" d="M14.55 5.63l0 1.46 -0.17 0 0 -1.88 0.17 0 0 0.12c0.16,-0.15 0.34,-0.23 0.55,-0.23 0.22,0 0.4,0.07 0.54,0.21 0.14,0.14 0.21,0.31 0.21,0.52l0 1.26 -0.17 0 0 -1.24c0,-0.16 -0.06,-0.3 -0.17,-0.41 -0.12,-0.11 -0.25,-0.17 -0.41,-0.17 -0.16,0 -0.3,0.06 -0.41,0.17 -0.06,0.06 -0.11,0.13 -0.14,0.19z"/>
   <path id="_4" class="fil0" d="M18.3 7.09l-0.17 0 0 -0.38c-0.03,0.04 -0.07,0.09 -0.11,0.13 -0.2,0.2 -0.45,0.31 -0.74,0.31 -0.29,0 -0.54,-0.11 -0.74,-0.31 -0.21,-0.21 -0.31,-0.46 -0.31,-0.74 0,-0.3 0.1,-0.54 0.31,-0.75 0.2,-0.2 0.45,-0.31 0.74,-0.31 0.29,0 0.54,0.11 0.74,0.31 0.04,0.04 0.08,0.08 0.11,0.13l0 -0.27 0.17 0 0 1.88zm-0.17 -0.83l0 -0.33c-0.03,-0.17 -0.11,-0.32 -0.24,-0.45 -0.17,-0.17 -0.37,-0.25 -0.61,-0.25 -0.24,0 -0.45,0.08 -0.62,0.25 -0.17,0.17 -0.25,0.38 -0.25,0.62 0,0.24 0.08,0.44 0.25,0.61 0.17,0.17 0.38,0.25 0.62,0.25 0.24,0 0.44,-0.08 0.61,-0.25 0.13,-0.13 0.21,-0.28 0.24,-0.45z"/>
   <path id="_5" class="fil0" d="M18.88 5.63l0 1.46 -0.17 0 0 -1.88 0.17 0 0 0.12c0.16,-0.15 0.34,-0.23 0.55,-0.23 0.22,0 0.4,0.07 0.54,0.21 0.14,0.14 0.21,0.31 0.21,0.52l0 1.26 -0.17 0 0 -1.24c0,-0.16 -0.06,-0.3 -0.17,-0.41 -0.12,-0.11 -0.25,-0.17 -0.41,-0.17 -0.16,0 -0.3,0.06 -0.41,0.17 -0.06,0.06 -0.11,0.13 -0.14,0.19z"/>
   <path id="_6" class="fil0" d="M24.26 6.71c-0.29,0.28 -0.63,0.42 -1.04,0.42 -0.43,0 -0.8,-0.15 -1.11,-0.46 -0.3,-0.3 -0.45,-0.67 -0.45,-1.11 0,-0.43 0.15,-0.8 0.45,-1.11 0.31,-0.3 0.68,-0.46 1.11,-0.46 0.41,0 0.76,0.14 1.06,0.41l-0.13 0.12c-0.27,-0.23 -0.57,-0.35 -0.93,-0.35 -0.38,0 -0.71,0.14 -0.98,0.41 -0.27,0.27 -0.41,0.6 -0.41,0.98 0,0.39 0.14,0.72 0.41,0.99 0.27,0.27 0.6,0.4 0.98,0.4 0.33,0 0.62,-0.1 0.87,-0.3l0 -0.93 0.17 0 0 0.99z"/>
   <path id="_7" class="fil0" d="M26.67 7.09l-0.17 0 0 -0.38c-0.03,0.04 -0.07,0.09 -0.11,0.13 -0.2,0.2 -0.45,0.31 -0.74,0.31 -0.29,0 -0.54,-0.11 -0.74,-0.31 -0.21,-0.21 -0.31,-0.46 -0.31,-0.74 0,-0.3 0.1,-0.54 0.31,-0.75 0.2,-0.2 0.45,-0.31 0.74,-0.31 0.29,0 0.54,0.11 0.74,0.31 0.04,0.04 0.08,0.08 0.11,0.13l0 -0.27 0.17 0 0 1.88zm-0.17 -0.83l0 -0.33c-0.03,-0.17 -0.11,-0.32 -0.24,-0.45 -0.17,-0.17 -0.37,-0.25 -0.61,-0.25 -0.24,0 -0.45,0.08 -0.62,0.25 -0.17,0.17 -0.25,0.38 -0.25,0.62 0,0.24 0.08,0.44 0.25,0.61 0.17,0.17 0.38,0.25 0.62,0.25 0.24,0 0.44,-0.08 0.61,-0.25 0.13,-0.13 0.21,-0.28 0.24,-0.45z"/>
   <path id="_8" class="fil0" d="M27.57 6.08c-0.15,-0.08 -0.25,-0.14 -0.31,-0.2 -0.09,-0.09 -0.13,-0.19 -0.13,-0.32 0,-0.12 0.04,-0.23 0.13,-0.32 0.09,-0.09 0.2,-0.13 0.32,-0.13 0.13,0 0.23,0.04 0.31,0.12 0.08,0.08 0.12,0.17 0.12,0.28l0 0 -0.15 0.06c-0.01,-0.09 -0.04,-0.16 -0.09,-0.21 -0.05,-0.05 -0.11,-0.08 -0.19,-0.08 -0.08,0 -0.14,0.03 -0.2,0.08 -0.05,0.06 -0.08,0.12 -0.08,0.2 0,0.08 0.03,0.14 0.08,0.2 0.04,0.03 0.1,0.08 0.21,0.15 0.16,0.08 0.27,0.16 0.34,0.23 0.11,0.11 0.17,0.24 0.17,0.39 0,0.16 -0.06,0.29 -0.17,0.4 -0.1,0.11 -0.24,0.16 -0.39,0.16 -0.15,0 -0.29,-0.05 -0.39,-0.16 -0.11,-0.11 -0.17,-0.23 -0.17,-0.36l0.17 -0.04c0,0.11 0.04,0.2 0.12,0.28 0.07,0.07 0.16,0.11 0.27,0.11 0.11,0 0.2,-0.04 0.27,-0.11 0.08,-0.08 0.12,-0.17 0.12,-0.28 0,-0.1 -0.04,-0.19 -0.12,-0.27 -0.04,-0.04 -0.12,-0.1 -0.24,-0.18z"/>
   <path id="_9" class="fil0" d="M28.46 5.21l0.17 0 0 0.27c0.03,-0.05 0.07,-0.09 0.11,-0.13 0.2,-0.2 0.45,-0.3 0.74,-0.3 0.29,0 0.54,0.1 0.74,0.3 0.21,0.21 0.31,0.45 0.31,0.75 0,0.28 -0.1,0.53 -0.31,0.74 -0.2,0.2 -0.45,0.31 -0.74,0.31 -0.29,0 -0.54,-0.11 -0.74,-0.31 -0.04,-0.04 -0.08,-0.09 -0.11,-0.13l0 1.1 -0.17 0 0 -2.6zm0.17 0.71l0 0.36c0.03,0.16 0.11,0.3 0.24,0.43 0.17,0.17 0.37,0.25 0.61,0.25 0.24,0 0.44,-0.08 0.61,-0.25 0.17,-0.17 0.26,-0.37 0.26,-0.61 0,-0.24 -0.09,-0.45 -0.26,-0.62 -0.17,-0.17 -0.37,-0.25 -0.61,-0.25 -0.24,0 -0.44,0.08 -0.61,0.25 -0.13,0.13 -0.21,0.27 -0.24,0.44z"/>
   <path id="_10" class="fil0" d="M32.9 7.09l-0.18 0 0 -0.38c-0.03,0.04 -0.07,0.09 -0.1,0.13 -0.21,0.2 -0.46,0.31 -0.75,0.31 -0.29,0 -0.53,-0.11 -0.74,-0.31 -0.21,-0.21 -0.31,-0.46 -0.31,-0.74 0,-0.3 0.1,-0.54 0.31,-0.75 0.21,-0.2 0.45,-0.31 0.74,-0.31 0.29,0 0.54,0.11 0.75,0.31 0.03,0.04 0.07,0.08 0.1,0.13l0 -0.27 0.18 0 0 1.88zm-0.18 -0.83l0 -0.33c-0.03,-0.17 -0.11,-0.32 -0.23,-0.45 -0.18,-0.17 -0.38,-0.25 -0.62,-0.25 -0.24,0 -0.44,0.08 -0.61,0.25 -0.17,0.17 -0.26,0.38 -0.26,0.62 0,0.24 0.09,0.44 0.26,0.61 0.17,0.17 0.37,0.25 0.61,0.25 0.24,0 0.44,-0.08 0.62,-0.25 0.12,-0.13 0.2,-0.28 0.23,-0.45z"/>
   <path id="_11" class="fil0" d="M33.97 5.36c-0.13,0.02 -0.25,0.1 -0.36,0.24 -0.12,0.14 -0.18,0.27 -0.18,0.41l0 1.08 -0.17 0 0 -1.88 0.17 0 0 0.41c0.07,-0.19 0.22,-0.33 0.44,-0.42l0.1 0.16z"/>
  </g>
 </g>
</svg>
